<?xml version="1.0" encoding="utf-8"?>
<!-- Generator: Adobe Illustrator 13.0.0, SVG Export Plug-In . SVG Version: 6.00 Build 14948)  -->
<!DOCTYPE svg PUBLIC "-//W3C//DTD SVG 1.1//EN" "http://www.w3.org/Graphics/SVG/1.1/DTD/svg11.dtd">
<svg version="1.1" id="Layer_1" xmlns="http://www.w3.org/2000/svg" xmlns:xlink="http://www.w3.org/1999/xlink" x="0px" y="0px"
	 width="27px" height="32px" viewBox="0 0 27 32" enable-background="new 0 0 27 32" xml:space="preserve">
<filter  height="200%" width="200%" y="-50%" x="-50%" filterUnits="objectBoundingBox" id="filter-1">
	<feOffset  result="shadowOffsetOuter1" dy="2" dx="0" in="SourceAlpha"></feOffset>
	<feGaussianBlur  stdDeviation="2" result="shadowBlurOuter1" in="shadowOffsetOuter1"></feGaussianBlur>
	
		<feColorMatrix  type="matrix" result="shadowMatrixOuter1" values="0 0 0 0 0   0 0 0 0 0   0 0 0 0 0  0 0 0 0.05 0" in="shadowBlurOuter1">
		</feColorMatrix>
	<feMerge>
		<feMergeNode  in="shadowMatrixOuter1"></feMergeNode>
		<feMergeNode  in="SourceGraphic"></feMergeNode>
	</feMerge>
</filter>
<title>ic_home</title>
<desc>Created with Sketch.</desc>
<g id="OPt-2">
	<g id="prog2_pro3_Mobile-Portrait_opt2-Copy-2" transform="translate(-10.000000, -15.000000)">
		<g id="nav">
			<g id="Group-6" filter="url(#filter-1)">
				<g transform="translate(14.000000, 17.000000)">
					<g transform="translate(9.600000, 12.000000) scale(-1, 1) translate(-9.600000, -12.000000) ">
						<path fill="#B0975A" d="M1.542,6.862l0.895,0.692l1.439,1.115C4.069,7.7,4.63,6.867,5.406,6.325L2.635,4.178l0.858-1.139
							c0.351-0.466,0.263-1.132-0.197-1.487L1.207,4.323C0.897,4.733,0.79,5.235,0.864,5.708C0.933,6.15,1.163,6.568,1.542,6.862
							L1.542,6.862z"/>
						<path fill="#B0975A" d="M10.327,16.551c-3.092-1.62-5.844-2.078-6.539-0.965c-0.57,0.914,0.4,2.646,2.3,4.422L4.285,22.94
							H3.057c-0.565,0.016-1.02,0.483-1.02,1.06h1.596h2.113l0.652-1.06l1.045-1.7l0.408-0.663c-0.145-0.239-0.229-0.52-0.229-0.82
							c0-0.871,0.697-1.577,1.556-1.577c0.048,0,0.094,0.005,0.141,0.009L10.327,16.551L10.327,16.551z"/>
						<path fill="#B0975A" d="M18.973,6.453c-0.161-0.788-0.849-1.38-1.674-1.38c-0.235,0-0.46,0.049-0.664,0.136
							c-0.615,0.263-1.047,0.879-1.047,1.599v8.224c0,0.586-0.469,1.061-1.047,1.061c-0.421,0-0.783-0.252-0.949-0.615
							c-0.015-0.032-0.028-0.065-0.04-0.1l-0.972-2.442l1.886-6.454c0.001-0.004,0.003-0.009,0.004-0.013
							c0.023-0.072,0.043-0.145,0.063-0.217C15.222,3.722,13.986,1.082,11.674,0L7.229,1.566C6.684,1.755,6.392,2.355,6.576,2.909
							l1.126-0.408C8.146,2.34,8.636,2.575,8.795,3.025S8.721,3.973,8.278,4.134L7.116,4.555c0.203,0.544,0.801,0.822,1.34,0.621
							l1.226-0.457c0.087,0.5-0.19,1.006-0.677,1.183l-2.35,0.867c-0.99,0.43-1.693,1.407-1.742,2.557
							C4.911,9.367,4.908,9.409,4.908,9.452c0,0.026,0.003,0.052,0.003,0.077C4.907,9.518,4.903,9.51,4.903,9.51H1.237V8.076
							c0-0.4-0.488-0.749-0.799-0.93L0.19,7.015v3.513c0.014,0.989,0.807,1.787,1.785,1.787h4.136c0.366,0,0.723,0.044,1.063,0.127
							c-0.017-0.004-0.033-0.01-0.05-0.015c0.019,0.005,0.036,0.011,0.054,0.015C7.19,12.444,7.2,12.447,7.212,12.45
							c1.842,0.462,3.242,2.064,3.429,4.027c0.003,0.034,0.005,0.068,0.008,0.104c0.008,0.113,0.014,0.229,0.014,0.344
							c0,1.104-0.383,2.118-1.022,2.912c-0.047,0.059-0.095,0.115-0.145,0.172c-0.131,0.188-0.208,0.418-0.208,0.666
							c0,0.641,0.513,1.162,1.146,1.162c0.228,0,0.44-0.068,0.619-0.184l2.321-1.389c0.32,0.182,0.537,0.527,0.537,0.926
							c0,0.264-0.095,0.505-0.251,0.69l-0.963,1.061H11.52h0h-0.057c-0.564,0.016-1.018,0.483-1.018,1.06h2.093h0h1.264
							c0-1,0.8-1.811,1.787-1.811V19.1c-0.819-0.166-1.436-0.897-1.436-1.776c0-0.044,0.002-0.088,0.005-0.132
							c0.104,0.017,0.21,0.027,0.32,0.027c0.407,0,0.786-0.116,1.111-0.314c0.626-0.383,1.047-1.078,1.047-1.873V6.807
							c0-0.383,0.306-0.694,0.684-0.694c0.365,0,0.662,0.29,0.682,0.654c-0.47,0.326-0.778,0.874-0.778,1.495
							c0,1,0.799,1.811,1.786,1.811V6.807C19.01,6.686,18.997,6.567,18.973,6.453L18.973,6.453z"/>
					</g>
				</g>
			</g>
		</g>
	</g>
</g>
</svg>
